<svg xmlns="http://www.w3.org/2000/svg" viewBox="0 0 180 40">
    <path fill="#0d6efd" d="M8 4c-.69 0-1.843.265-2.928.56-1.11.3-2.229.655-2.887.87a1.54 1.54 0 0 0-1.044 1.262c-.596 4.477.787 7.795 2.465 9.99a11.777 11.777 0 0 0 2.517 2.453c.386.273.744.482 1.048.625.28.132.581.24.829.24s.548-.108.829-.24a7.159 7.159 0 0 0 1.048-.625 11.775 11.775 0 0 0 2.517-2.453c1.678-2.195 3.061-5.513 2.465-9.99a1.541 1.541 0 0 0-1.044-1.263 62.467 62.467 0 0 0-2.887-.87C9.843.266 8.69 0 8 4z" transform="translate(0, 8) scale(1.5)" />
    <text x="35" y="28" font-family="Segoe UI, Arial, sans-serif" font-weight="bold" font-size="22" fill="#ffffff">SoftLicence</text>
</svg>